# xmcd
#
# Track frame offsets:
#	225
#	12494
#	22617
#	43648
#	54785
#	68877
#	80827
#	87142
#	103243
#	115117
#	130148
#	139876
#	151304
#	161674
#	171379
#	183645
#
# Disc length: 2585
#
# Revision: 1
# Processed by: cddbd v1.5.1PL0 Copyright (c) Steve Scherf et al.
# Submitted via: VisiTrax 2.9.5.181 - For more info visit www.synapsa.com
# Normalized: r0:DSETVAR1
#
DISCID=d20a1610
DTITLE=Various Artist - The best Of Contry 4, cd 2
DYEAR=1996
DGENRE=
TTITLE0=Johnny Cash - Folsom prisson blues
TTITLE1=Brenda Lee - I'm sorry
TTITLE2=John Denver - Sing Australia
TTITLE3=George Jones - Where we never grow old
TTITLE4=Willie Nelson - Good Hearted Woman
TTITLE5=Patsy Cline - Today, tomorrow and forever
TTITLE6=Brenda Lee - I'll fly away
TTITLE7=Anne Murray - Both sides now
TTITLE8=Wanda Jackson - Sweet dreams
TTITLE9=Kenny Rogers - Heed the call
TTITLE10=Lynn Andersen - Snowbird
TTITLE11=Charley Pride - It's gonna take a little bit longer
TTITLE12=Loretta Lynn - Out of my head and back in my bed
TTITLE13=Ferlin Husky - Truck driving son of a gun
TTITLE14=Willie Nelson - Seven Spanish angels
TTITLE15=Wanda Jackson - It's only make believe
EXTD=
EXTT0=
EXTT1=
EXTT2=
EXTT3=
EXTT4=
EXTT5=
EXTT6=
EXTT7=
EXTT8=
EXTT9=
EXTT10=
EXTT11=
EXTT12=
EXTT13=
EXTT14=
EXTT15=
PLAYORDER=
